# xmcd
#
# Track frame offsets: 
#        150
#        11245
#        22469
#        34073
#        45099
#        57184
#        69568
#        80628
#        92659
#        106053
#        115016
#        126117
#        136859
#        147345
#        157610
#        168248
#        180997
#        193867
#        205832
#        216246
#
# Disc length: 3030 seconds
#
# Revision: 2
# Processed by: cddbd v1.5.2PL0 Copyright (c) Steve Scherf et al.
# Submitted via: ExactAudioCopyFreeDBPlugin 1.0
#
DISCID=0d0bd414
DTITLE=Various Artist - VeeJay:  The Very Best of Blues [Rhino-Collec
DTITLE=tables box set]
DYEAR=2000
DGENRE=Blues
TTITLE0=Jimmy Reed - Baby What Do You Want Me to Do
TTITLE1=Memphis Slim - This Time I'm Through
TTITLE2=John Lee Hooker - I Love You Honey
TTITLE3=Pee Wee Crayton - I Found My Peace of Mind
TTITLE4=Billy Boy Arnold - Rockinitis
TTITLE5=Elmore James - Cry for Me Baby
TTITLE6=Eddie Taylor - Looking for Trouble
TTITLE7=Memphis Slim - Stroll on Little Girl
TTITLE8=Bobby Parker - Blues Get Off My Shoulder
TTITLE9=Eddie Taylor - I'm Gonna Love You
TTITLE10=Jimmy Reed - You Know I Love You
TTITLE11=Memphis Slim - What's the Matter
TTITLE12=Elmore James - Take Me Where You Go
TTITLE13=Lee Diamond - Mama Loochie
TTITLE14=Billy The Kid Emerson - You Never Miss the Water
TTITLE15=Billy Boy Arnoald - Prisnoer's Plea
TTITLE16=Pee Wee Crayton - Fiddle Dee Dee
TTITLE17=Jimmy Reed - I'm Gonna Get My Baby
TTITLE18=Elmore James - Elmore's Contribution to Jazz
TTITLE19=John Lee Hooker - You've Taken My Woman
EXTD=
EXTT0=
EXTT1=
EXTT2=
EXTT3=
EXTT4=
EXTT5=
EXTT6=
EXTT7=
EXTT8=
EXTT9=
EXTT10=
EXTT11=
EXTT12=
EXTT13=
EXTT14=
EXTT15=
EXTT16=
EXTT17=
EXTT18=
EXTT19=
PLAYORDER=
